<svg width="443.4" height="143.06773169200582" viewBox="0 0 369.5443037974684 119.23740483537505" class="looka-1j8o68f" xmlns="http://www.w3.org/2000/svg"><defs id="SvgjsDefs2597"><linearGradient id="SvgjsLinearGradient2604"><stop id="SvgjsStop2605" stop-color="#905e26" offset="0"></stop><stop id="SvgjsStop2606" stop-color="#f5ec9b" offset="0.5"></stop><stop id="SvgjsStop2607" stop-color="#905e26" offset="1"></stop></linearGradient><linearGradient id="SvgjsLinearGradient2608"><stop id="SvgjsStop2609" stop-color="#905e26" offset="0"></stop><stop id="SvgjsStop2610" stop-color="#f5ec9b" offset="0.5"></stop><stop id="SvgjsStop2611" stop-color="#905e26" offset="1"></stop></linearGradient><linearGradient id="SvgjsLinearGradient2612"><stop id="SvgjsStop2613" stop-color="#905e26" offset="0"></stop><stop id="SvgjsStop2614" stop-color="#f5ec9b" offset="0.5"></stop><stop id="SvgjsStop2615" stop-color="#905e26" offset="1"></stop></linearGradient></defs><g id="SvgjsG2598" featurekey="T16ghp-0" transform="matrix(1.9545793000744602,0,0,1.9545793000744602,5.176353324631042e-7,7.489116262442445e-33)" fill="url(#SvgjsLinearGradient2604)"><title xmlns="http://www.w3.org/2000/svg">042 - Wedding Dress </title><desc xmlns="http://www.w3.org/2000/svg">Created with Sketch.</desc><g xmlns="http://www.w3.org/2000/svg" stroke="none" stroke-width="1" fill="none" fill-rule="evenodd"><g fill="url(#SvgjsLinearGradient2604)" fill-rule="nonzero"><path d="M22.638,21.239 C26.946,17.521 27,11.271 27,10.987 C26.9988906,10.7197541 26.8908556,10.4640714 26.7,10.277 C26.5075708,10.086916 26.3038687,9.90859321 26.09,9.743 L26.731,7.18 C26.9925212,6.1335644 26.3771371,5.06825549 25.34,4.772 L20,3.246 L20,2 C20,0.8954305 19.1045695,6.76353751e-17 18,0 L16,0 C14.8954305,-6.76353751e-17 14,0.8954305 14,2 L14,3.245 L8.655,4.773 C7.61577691,5.06657815 6.99911744,6.13409504 7.264,7.181 L7.905,9.742 C7.69136173,9.90822961 7.48767726,10.0868709 7.295,10.277 C7.10414435,10.4640714 6.99610942,10.7197541 6.995,10.987 C6.995,11.271 7.049,17.521 11.357,21.239 C8.321,23.846 5.31706933e-16,32.657 5.31706933e-16,51.007 C-0.000332420106,51.4663433 0.312309965,51.866839 0.758,51.978 C5.75953177,53.15084 10.8653453,53.8231513 16,53.985 L16,56.051 C14.1941607,56.2141836 12.4578099,56.8264268 10.949,57.832 L10.449,58.168 C9.98949913,58.4745181 9.86548204,59.0954991 10.1720001,59.555 C10.4785181,60.0145009 11.0994991,60.138518 11.559,59.832 L12.059,59.496 C13.2402099,58.7138138 14.5915606,58.2258737 16,58.073 L16,59 C16,59.5522847 16.4477153,60 17,60 C17.5522847,60 18,59.5522847 18,59 L18,58.073 C19.4087843,58.2270782 20.7601602,58.716399 21.941,59.5 L22.441,59.836 C22.738245,60.0342824 23.1186931,60.0589246 23.4390331,59.9006441 C23.7593732,59.7423636 23.970938,59.425207 23.9940331,59.0686441 C24.0171282,58.7120812 23.848245,58.3702824 23.551,58.172 L23.051,57.836 C21.5425754,56.8290111 19.8061976,56.2153832 18,56.051 L18,53.985 C23.1346547,53.8231513 28.2404682,53.15084 33.242,51.978 C33.68769,51.866839 34.0003324,51.4663433 34,51.007 C34,32.657 25.679,23.846 22.638,21.239 Z M9.205,6.7 L14.548,5.173 C15.407178,4.92576917 15.9992264,4.14004102 16,3.246 L16,2 L18,2 L18,3.246 C18.0026269,4.13788883 18.5932349,4.92115719 19.45,5.169 L24.8,6.7 L24.294,8.726 C21.9073206,7.86163274 19.2704512,8.01491388 17,9.15 C14.7316455,8.01469377 12.096871,7.85962198 9.711,8.721 L9.205,6.7 Z M17,52 C11.9541705,51.9118692 6.93022405,51.3131502 2.005,50.213 C2.292,29.959 13.447,22.13 13.559,22.054 C13.8368083,21.8668397 14.0024563,21.5530153 14.0002446,21.2180503 C13.998033,20.8830854 13.8282555,20.5714756 13.548,20.388 C9.748,17.898 9.121,12.896 9.02,11.411 C11.565,9.301 15.627,10.421 16.297,11.084 C16.6865663,11.4690802 17.3134337,11.4690802 17.703,11.084 C18.374,10.421 22.437,9.301 24.981,11.412 C24.881,12.896 24.272,17.888 20.452,20.388 C20.1717445,20.5714756 20.001967,20.8830854 19.9997554,21.2180503 C19.9975437,21.5530153 20.1631917,21.8668397 20.441,22.054 C20.555,22.131 31.71,29.886 31.995,50.213 C27.0698627,51.3136578 22.0458645,51.912383 17,52 Z"></path><path d="M20.4,27.2 C19.9581722,27.5313708 19.8686292,28.1581722 20.2,28.6 C22.809,32.052 26.381,36.779 27,47.058 C27.0307628,47.5875129 27.469595,48.0008929 28,48 L28.061,48 C28.3263977,47.9843063 28.5746214,47.8635749 28.7508187,47.6644852 C28.9270159,47.4653954 29.0166811,47.2043374 29,46.939 C28.345,36.059 24.562,31.053 21.8,27.397 C21.4677104,26.9561539 20.8410439,26.867973 20.4,27.2 Z"></path><path d="M12.2,27.4 C9.437,31.064 5.654,36.08 5,46.941 C4.98387663,47.206167 5.0739269,47.4668517 5.25027982,47.6655302 C5.42663273,47.8642086 5.67479294,47.9845503 5.94,48 L6,48 C6.52931401,48.0009857 6.96771271,47.5893293 7,47.061 C7.619,36.801 11.191,32.061 13.8,28.602 C14.1313708,28.1601722 14.0418278,27.5333708 13.6,27.202 C13.1581722,26.8706292 12.5313708,26.9601722 12.2,27.402 L12.2,27.4 Z"></path></g></g></g><g id="SvgjsG2599" featurekey="Fok8m0-0" transform="matrix(1.9987614731250611,0,0,1.9987614731250611,85.00061831035373,19.007431161249634)" fill="url(#SvgjsLinearGradient2608)"><path d="M6.92 17.46 c0 -1.34 -1.06 -2.06 -2.76 -2.86 c-1.88 -0.88 -3.52 -1.88 -3.52 -4.02 c0 -1.92 1.54 -3.32 3.76 -3.32 c1.5 0 2.04 0.46 2.52 0.46 c0.22 0 0.38 -0.04 0.46 -0.3 l0.66 0 l0.14 2.76 l-0.4 -0.02 c-0.28 -0.02 -0.4 -0.1 -0.54 -0.38 c-0.5 -1.12 -1.46 -1.8 -2.56 -1.8 c-1.26 0 -1.98 0.86 -1.98 1.86 c0 1.26 0.88 1.88 2.38 2.58 c1.58 0.76 4.1 1.68 4.1 4.26 c0 2.38 -2.2 3.58 -4.06 3.58 c-1.72 0 -2.52 -0.76 -3.1 -0.76 c-0.4 0 -0.56 0.24 -0.62 0.48 l-0.72 0 l-0.18 -2.9 l0.58 0 c0.24 0 0.36 0.08 0.46 0.34 c0.46 1.2 1.64 2.08 3.18 2.08 c1.34 0 2.2 -0.82 2.2 -2.04 z M18.4 17.8 c0 0.72 0.44 0.86 1.22 0.74 l0 0.7 c-1.76 0.42 -2.5 1 -3 1 c-0.34 0 -0.52 -0.18 -0.5 -0.6 l0.12 -1.5 c-0.44 0.96 -1.38 2.1 -3.1 2.1 c-1.42 0 -2.96 -0.7 -2.96 -2.54 s1.26 -3.06 5.94 -4.02 l0 -0.92 c0 -1.68 -0.12 -2.34 -1.02 -2.34 c-2.92 0 -1.38 3.02 -3.26 3.02 c-0.68 0 -1 -0.4 -1 -0.94 c0 -1.48 1.9 -2.7 4.34 -2.7 c2.26 0 3.22 0.68 3.22 3.08 l0 4.92 z M13.96 19.26 c1.24 0 1.96 -1.46 2.16 -2.12 l0 -2.84 c-3.32 0.72 -3.6 2.36 -3.6 3.24 c0 1.02 0.54 1.72 1.44 1.72 z M28.64 17.8 c0 0.72 0.44 0.86 1.22 0.74 l0 0.7 c-1.76 0.42 -2.5 1 -3 1 c-0.34 0 -0.52 -0.18 -0.5 -0.6 l0.12 -1.5 c-0.44 0.96 -1.38 2.1 -3.1 2.1 c-1.42 0 -2.96 -0.7 -2.96 -2.54 s1.26 -3.06 5.94 -4.02 l0 -0.92 c0 -1.68 -0.12 -2.34 -1.02 -2.34 c-2.92 0 -1.38 3.02 -3.26 3.02 c-0.68 0 -1 -0.4 -1 -0.94 c0 -1.48 1.9 -2.7 4.34 -2.7 c2.26 0 3.22 0.68 3.22 3.08 l0 4.92 z M24.200000000000003 19.26 c1.24 0 1.96 -1.46 2.16 -2.12 l0 -2.84 c-3.32 0.72 -3.6 2.36 -3.6 3.24 c0 1.02 0.54 1.72 1.44 1.72 z M40.14 18.62 c0 0.5 0.54 0.66 1.22 0.74 l0 0.64 c-1.56 -0.06 -3.12 -0.06 -4.7 0 l0 -0.64 c0.68 -0.06 1.22 -0.24 1.22 -0.74 l0 -5.32 c0 -1.5 -0.22 -2.5 -1.26 -2.5 c-1.38 0 -2.46 1.58 -2.68 2 l0 5.82 c0 0.5 0.54 0.68 1.22 0.74 l0 0.64 c-1.56 -0.06 -3.12 -0.06 -4.68 0 l0 -0.64 c0.66 -0.08 1.2 -0.24 1.2 -0.74 l0 -6.38 c0 -0.7 -0.44 -0.86 -1.22 -0.76 l0 -0.64 c1.76 -0.32 2.54 -1.1 3 -1.1 c0.34 0 0.52 0.24 0.48 0.62 l-0.18 1.66 c0.42 -0.64 1.62 -2.22 3.48 -2.22 c1.62 0 2.9 0.68 2.9 3.46 l0 5.36 z M44.5 8.4 c-0.66 0 -1.22 -0.54 -1.22 -1.2 s0.56 -1.2 1.22 -1.2 c0.64 0 1.2 0.54 1.2 1.2 c0 0.64 -0.56 1.2 -1.2 1.2 z M45.36000000000001 9.76 c0.32 0 0.54 0.16 0.54 0.52 c0 0.66 -0.12 1.4 -0.12 2.64 l0 6.16 c0 3.86 -1.72 5.22 -4.64 5.22 l-0.08 -0.64 c1.6 -0.14 2.46 -1.08 2.46 -3.54 l0 -7.96 c0 -0.7 -0.46 -0.88 -1.22 -0.84 l0 -0.62 c1.84 -0.28 2.58 -0.94 3.06 -0.94 z M57.08 18.62 c0 0.5 0.54 0.66 1.22 0.74 l0 0.64 c-1.56 -0.06 -3.12 -0.06 -4.7 0 l0 -0.64 c0.68 -0.06 1.22 -0.24 1.22 -0.74 l0 -5.32 c0 -1.5 -0.22 -2.5 -1.26 -2.5 c-1.38 0 -2.46 1.6 -2.68 2 l0 5.82 c0 0.5 0.54 0.68 1.22 0.74 l0 0.64 c-1.56 -0.06 -3.12 -0.06 -4.68 0 l0 -0.64 c0.66 -0.08 1.2 -0.24 1.2 -0.74 l0 -9.94 c0 -0.7 -0.44 -0.88 -1.22 -0.76 l0 -0.64 c1.76 -0.32 2.54 -1.1 3 -1.1 c0.34 0 0.48 0.18 0.48 0.58 l0 4.02 l-0.14 1.22 c0.4 -0.64 1.6 -2.2 3.44 -2.2 c1.62 0 2.9 0.68 2.9 3.46 l0 5.36 z M61.2 8.4 c-0.66 0 -1.22 -0.54 -1.22 -1.2 s0.56 -1.2 1.22 -1.2 c0.64 0 1.2 0.54 1.2 1.2 s-0.56 1.2 -1.2 1.2 z M62.480000000000004 18.62 c0 0.5 0.54 0.66 1.22 0.74 l0 0.64 c-1.56 -0.06 -3.12 -0.06 -4.68 0 l0 -0.64 c0.66 -0.08 1.2 -0.24 1.2 -0.74 l0 -6.46 c0 -0.7 -0.44 -0.88 -1.22 -0.84 l0 -0.62 c1.84 -0.28 2.58 -0.94 3.06 -0.94 c0.32 0 0.54 0.16 0.54 0.52 c0 0.66 -0.12 1.4 -0.12 2.64 l0 5.7 z M79.26 16.64 l0.82 0 c-0.46 1.76 -1.8 3.64 -4.84 3.64 c-3.58 0 -6.04 -2.72 -6.04 -6.56 c0 -3.68 2.44 -6.46 5.8 -6.46 c1.54 0 2 0.42 3.18 0.42 c0.22 0 0.38 0 0.76 -0.08 c0.18 1.14 0.46 2.24 0.98 3.44 l-1.18 0 c-0.82 -1.88 -2 -3.06 -3.98 -3.06 c-1.62 0 -3.06 1.44 -3.06 5.18 c0 3.64 1.46 6.32 3.86 6.32 c1.7 0 3.02 -0.84 3.7 -2.84 z M87.26 9.78 c0.98 0 1.64 0.52 1.64 1.22 s-0.5 1.1 -1.04 1.1 c-0.92 0 -0.9 -0.8 -1.76 -0.8 c-1.16 0 -1.6 1.48 -1.76 1.94 l0 5.38 c0 0.5 0.56 0.66 1.22 0.74 l0 0.64 c-1.56 -0.08 -3.12 -0.08 -4.68 0 l0 -0.64 c0.68 -0.08 1.22 -0.24 1.22 -0.74 l0 -6.36 c0 -0.7 -0.44 -0.86 -1.22 -0.76 l0 -0.64 c1.76 -0.32 2.52 -1.12 2.98 -1.12 c0.34 0 0.54 0.24 0.48 0.62 l-0.3 2 c0.72 -1.64 1.66 -2.58 3.22 -2.58 z  M97.34 17.8 c0.2 0 0.28 0.2 0.14 0.46 c-0.54 1.12 -1.62 1.94 -3.36 1.94 c-2.68 0 -4.84 -1.82 -4.84 -5.22 c0 -3.32 2.24 -5.16 4.6 -5.16 c2.3 0 4.12 1.6 4.12 4.12 c0 0.76 -0.3 1.26 -1.08 1.26 l-5.24 0 c0.02 2.52 0.92 4.32 2.74 4.32 c1.02 0 1.74 -0.44 2.26 -1.42 c0.1 -0.18 0.16 -0.3 0.38 -0.3 l0.28 0 z M95.80000000000001 14.440000000000001 c0 -2.46 -0.54 -3.94 -1.92 -3.94 c-1.42 0 -2.18 1.48 -2.2 3.94 l4.12 0 z M107.32000000000001 17.8 c0 0.72 0.44 0.86 1.22 0.74 l0 0.7 c-1.76 0.42 -2.5 1 -3 1 c-0.34 0 -0.52 -0.18 -0.5 -0.6 l0.12 -1.5 c-0.44 0.96 -1.38 2.1 -3.1 2.1 c-1.42 0 -2.96 -0.7 -2.96 -2.54 s1.26 -3.06 5.94 -4.02 l0 -0.92 c0 -1.68 -0.12 -2.34 -1.02 -2.34 c-2.92 0 -1.38 3.02 -3.26 3.02 c-0.68 0 -1 -0.4 -1 -0.94 c0 -1.48 1.9 -2.7 4.34 -2.7 c2.26 0 3.22 0.68 3.22 3.08 l0 4.92 z M102.88000000000001 19.26 c1.24 0 1.96 -1.46 2.16 -2.12 l0 -2.84 c-3.32 0.72 -3.6 2.36 -3.6 3.24 c0 1.02 0.54 1.72 1.44 1.72 z M114.52 19.42 c-0.38 0.36 -1.12 0.72 -1.94 0.72 c-1.52 0 -2.56 -0.78 -2.56 -2.76 l0 -6.66 l-0.86 0 c-0.14 0 -0.22 -0.1 -0.22 -0.24 l0 -0.28 c0 -0.14 0.08 -0.22 0.22 -0.22 c1.36 0 1.92 -0.96 2.14 -2.72 l0.98 0 l0 2.72 l2.04 0 c0.14 0 0.22 0.08 0.22 0.22 l0 0.28 c0 0.14 -0.08 0.24 -0.22 0.24 l-2.04 0 l0 7.04 c0 0.8 0.18 1.5 1 1.5 c0.54 0 1 -0.34 1.24 -0.64 l0 0.8 z M117.74 8.4 c-0.66 0 -1.22 -0.54 -1.22 -1.2 s0.56 -1.2 1.22 -1.2 c0.64 0 1.2 0.54 1.2 1.2 s-0.56 1.2 -1.2 1.2 z M119.02 18.62 c0 0.5 0.54 0.66 1.22 0.74 l0 0.64 c-1.56 -0.06 -3.12 -0.06 -4.68 0 l0 -0.64 c0.66 -0.08 1.2 -0.24 1.2 -0.74 l0 -6.46 c0 -0.7 -0.44 -0.88 -1.22 -0.84 l0 -0.62 c1.84 -0.28 2.58 -0.94 3.06 -0.94 c0.32 0 0.54 0.16 0.54 0.52 c0 0.66 -0.12 1.4 -0.12 2.64 l0 5.7 z M125.88 9.82 c2.3 0 4.68 1.72 4.68 5.08 c0 3.46 -2.38 5.3 -4.64 5.3 c-2.3 0 -4.68 -1.84 -4.68 -5.14 c0 -3.52 2.38 -5.24 4.64 -5.24 z M128.1 15.48 c0 -2.98 -0.96 -4.98 -2.5 -4.98 c-1.22 0 -1.9 1.3 -1.9 3.98 c0 3 0.96 5.04 2.48 5.04 c1.24 0 1.92 -1.34 1.92 -4.04 z M141.14 18.62 c0 0.5 0.54 0.66 1.22 0.74 l0 0.64 c-1.56 -0.06 -3.12 -0.06 -4.7 0 l0 -0.64 c0.68 -0.06 1.22 -0.24 1.22 -0.74 l0 -5.32 c0 -1.5 -0.22 -2.5 -1.26 -2.5 c-1.38 0 -2.46 1.58 -2.68 2 l0 5.82 c0 0.5 0.54 0.68 1.22 0.74 l0 0.64 c-1.56 -0.06 -3.12 -0.06 -4.68 0 l0 -0.64 c0.66 -0.08 1.2 -0.24 1.2 -0.74 l0 -6.38 c0 -0.7 -0.44 -0.86 -1.22 -0.76 l0 -0.64 c1.76 -0.32 2.54 -1.1 3 -1.1 c0.34 0 0.52 0.24 0.48 0.62 l-0.18 1.66 c0.42 -0.64 1.62 -2.22 3.48 -2.22 c1.62 0 2.9 0.68 2.9 3.46 l0 5.36 z"></path></g><g id="SvgjsG2600" featurekey="TflPBd-0" transform="matrix(0.5613309131576771,0,0,0.5613309131576771,85.06820201167493,75.54137053613016)" fill="url(#SvgjsLinearGradient2612)"><path d="M6.08 13.36 l-0.24 -0.000039062 l0.26 -0.46 l3.62 6.06 c0.08 0.14666 0.12 0.3 0.12 0.46 c0 0.24 -0.08666 0.44666 -0.26 0.62 s-0.38 0.26 -0.62 0.26 c-0.16 0 -0.31 -0.04 -0.45 -0.12 s-0.25 -0.18666 -0.33 -0.32 l-3.88 -6.5 l-0.86 0 l0 6.06 c0 0.24 -0.08666 0.44666 -0.26 0.62 s-0.38 0.26 -0.62 0.26 c-0.25334 0 -0.46668 -0.08666 -0.64002 -0.26 s-0.26 -0.38 -0.26 -0.62 l0 -14.02 c0 -0.24 0.08666 -0.44666 0.26 -0.62 s0.38668 -0.26 0.64002 -0.26 l3.52 0 c0.61334 0 1.19 0.11666 1.73 0.35 s1.01 0.55 1.41 0.95 s0.71666 0.86666 0.95 1.4 s0.35 1.1067 0.35 1.72 s-0.11666 1.1867 -0.35 1.72 s-0.55 1 -0.95 1.4 s-0.87 0.71666 -1.41 0.95 s-1.1167 0.35 -1.73 0.35 z M6.08 6.279999999999999 l-2.64 0 l0 5.3 l2.64 0 c0.36 0 0.70334 -0.07 1.03 -0.21 s0.61 -0.33 0.85 -0.57 s0.43 -0.52 0.57 -0.84 s0.21 -0.66 0.21 -1.02 s-0.07 -0.70334 -0.21 -1.03 s-0.33 -0.61 -0.57 -0.85 s-0.52334 -0.43 -0.85 -0.57 s-0.67 -0.21 -1.03 -0.21 z M32.598 20.3 l-6.88 -0.000019531 c-0.25334 0 -0.46668 -0.08666 -0.64002 -0.26 s-0.26 -0.38 -0.26 -0.62 l0 -0.04 l0 -0.04 l0 -13.94 c0 -0.24 0.08666 -0.44666 0.26 -0.62 s0.38668 -0.26 0.64002 -0.26 l6.88 0 c0.25334 0 0.46668 0.08666 0.64002 0.26 s0.26 0.38 0.26 0.62 c0 0.25334 -0.08666 0.46334 -0.26 0.63 s-0.38668 0.25 -0.64002 0.25 l-6 0 l0 5.1 l5.06 0 c0.24 0 0.44666 0.08334 0.62 0.25 s0.26 0.37666 0.26 0.63 c0 0.24 -0.08666 0.44666 -0.26 0.62 s-0.38 0.26 -0.62 0.26 l-5.06 0 l0 5.38 l6 0 c0.25334 0 0.46668 0.08666 0.64002 0.26 s0.26 0.38668 0.26 0.64002 c0 0.24 -0.08666 0.44666 -0.26 0.62 s-0.38668 0.26 -0.64002 0.26 z M57.696 20.3 c-0.33334 0 -0.58668 -0.14 -0.76002 -0.42 l-7.22 -11.44 l0 10.98 c0 0.24 -0.08334 0.44666 -0.25 0.62 s-0.37666 0.26 -0.63 0.26 c-0.24 0 -0.44666 -0.08666 -0.62 -0.26 s-0.26 -0.38 -0.26 -0.62 l0 -14.02 c0 -0.24 0.08666 -0.44666 0.26 -0.62 s0.38 -0.26 0.62 -0.26 c0.33334 0 0.58668 0.13334 0.76002 0.4 l7.22 11.44 l0 -10.96 c0 -0.24 0.08334 -0.44666 0.25 -0.62 s0.37666 -0.26 0.63 -0.26 c0.24 0 0.44666 0.08666 0.62 0.26 s0.26 0.38 0.26 0.62 l0 14.02 c0 0.24 -0.08666 0.44666 -0.26 0.62 s-0.38 0.26 -0.62 0.26 z M81.794 6.279999999999999 l-3.24 0 l0 13.14 c0 0.24 -0.08666 0.44666 -0.26 0.62 s-0.38 0.26 -0.62 0.26 c-0.25334 0 -0.46668 -0.08666 -0.64002 -0.26 s-0.26 -0.38 -0.26 -0.62 l0 -13.14 l-3.24 0 c-0.24 0 -0.44666 -0.08334 -0.62 -0.25 s-0.26 -0.37666 -0.26 -0.63 c0 -0.24 0.08666 -0.44666 0.26 -0.62 s0.38 -0.26 0.62 -0.26 l8.26 0 c0.24 0 0.44666 0.08666 0.62 0.26 s0.26 0.38 0.26 0.62 c0 0.25334 -0.08666 0.46334 -0.26 0.63 s-0.38 0.25 -0.62 0.25 z M120.04999999999998 20.3 c-0.61334 0 -1.1867 -0.11668 -1.72 -0.35002 s-1 -0.55 -1.4 -0.95 s-0.71666 -0.86666 -0.95 -1.4 s-0.35 -1.1067 -0.35 -1.72 c0 -0.25334 0.08666 -0.46668 0.26 -0.64002 s0.38668 -0.26 0.64002 -0.26 c0.24 0 0.44666 0.08666 0.62 0.26 s0.26 0.38668 0.26 0.64002 c0 0.36 0.07 0.7 0.21 1.02 s0.33 0.6 0.57 0.84 s0.52 0.43 0.84 0.57 s0.66 0.21 1.02 0.21 s0.70334 -0.07 1.03 -0.21 s0.61 -0.33 0.85 -0.57 s0.43 -0.52 0.57 -0.84 s0.21 -0.66 0.21 -1.02 c0 -0.44 -0.08666 -0.80334 -0.26 -1.09 s-0.41334 -0.53666 -0.72 -0.75 c-0.14666 -0.10666 -0.31332 -0.20332 -0.49998 -0.28998 s-0.38 -0.17666 -0.58 -0.27 c-0.2 -0.08 -0.40666 -0.16 -0.62 -0.24 s-0.43334 -0.16 -0.66 -0.24 c-0.44 -0.16 -0.88334 -0.34 -1.33 -0.54 s-0.84666 -0.45 -1.2 -0.75 s-0.64334 -0.67334 -0.87 -1.12 s-0.34 -0.99666 -0.34 -1.65 c0 -0.61334 0.11666 -1.1867 0.35 -1.72 s0.55 -1 0.95 -1.4 s0.86666 -0.71666 1.4 -0.95 s1.1067 -0.35 1.72 -0.35 s1.19 0.11666 1.73 0.35 s1.01 0.55 1.41 0.95 s0.71666 0.86666 0.95 1.4 s0.35 1.1067 0.35 1.72 c0 0.24 -0.08666 0.44666 -0.26 0.62 s-0.38668 0.26 -0.64002 0.26 c-0.24 0 -0.44666 -0.08666 -0.62 -0.26 s-0.26 -0.38 -0.26 -0.62 c0 -0.36 -0.07 -0.70334 -0.21 -1.03 s-0.33 -0.61 -0.57 -0.85 s-0.52334 -0.43 -0.85 -0.57 s-0.67 -0.21 -1.03 -0.21 s-0.7 0.07 -1.02 0.21 s-0.6 0.33 -0.84 0.57 s-0.43 0.52334 -0.57 0.85 s-0.21 0.67 -0.21 1.03 c0 0.4 0.08334 0.73334 0.25 1 s0.40332 0.5 0.70998 0.7 c0.32 0.2 0.68 0.38 1.08 0.54 l0.64 0.24 l0.66 0.24 c0.44 0.16 0.88334 0.34334 1.33 0.55 s0.84666 0.46666 1.2 0.78 s0.64334 0.70334 0.87 1.17 s0.34 1.04 0.34 1.72 c0 0.61334 -0.11666 1.1867 -0.35 1.72 s-0.55 1 -0.95 1.4 s-0.87 0.71666 -1.41 0.95 s-1.1167 0.35 -1.73 0.35 z M145.88799999999998 20.3 l-5.34 0 c-0.24 0 -0.44666 -0.08666 -0.62 -0.26 s-0.26 -0.38 -0.26 -0.62 l0 -14.02 c0 -0.25334 0.08666 -0.46334 0.26 -0.63 s0.38 -0.25 0.62 -0.25 c0.25334 0 0.46334 0.08334 0.63 0.25 s0.25 0.37666 0.25 0.63 l0 13.14 l4.46 0 c0.25334 0 0.46668 0.08666 0.64002 0.26 s0.26 0.38 0.26 0.62 s-0.08666 0.44666 -0.26 0.62 s-0.38668 0.26 -0.64002 0.26 z M172.606 20.22 c-0.10666 0.05334 -0.21992 0.08 -0.33992 0.08 c-0.17334 0 -0.33668 -0.04666 -0.49002 -0.14 s-0.26334 -0.22668 -0.33 -0.40002 l-1.58 -3.72 l-7.26 0 l-1.58 3.72 c-0.09334 0.22666 -0.25334 0.38666 -0.48 0.48 s-0.45332 0.08668 -0.67998 -0.01998 c-0.22666 -0.09334 -0.38666 -0.25334 -0.48 -0.48 s-0.08668 -0.45332 0.01998 -0.67998 l1.8 -4.26 l4.22 -9.88 c0.06666 -0.17334 0.17332 -0.30668 0.31998 -0.40002 s0.31332 -0.14 0.49998 -0.14 c0.17334 0 0.33334 0.04666 0.48 0.14 s0.25332 0.22668 0.31998 0.40002 c1.0133 2.3734 2.02 4.73 3.02 7.07 s2.0066 4.6966 3.02 7.07 c0.09334 0.22666 0.09334 0.45332 0 0.67998 s-0.25334 0.38666 -0.48 0.48 z M166.24599999999998 7.539999999999999 l-2.88 6.72 l5.74 0 z M195.064 5.84 l-4.54 8.12 l0 5.46 c0 0.24 -0.08666 0.44666 -0.26 0.62 s-0.38 0.26 -0.62 0.26 s-0.44666 -0.08666 -0.62 -0.26 s-0.26 -0.38 -0.26 -0.62 l0 -5.46 l-4.54 -8.12 c-0.08 -0.13334 -0.12 -0.28 -0.12 -0.44 c0 -0.24 0.08666 -0.44666 0.26 -0.62 s0.38 -0.26 0.62 -0.26 c0.16 0 0.31 0.04 0.45 0.12 s0.25 0.18666 0.33 0.32 l3.88 6.94 l3.88 -6.94 c0.08 -0.13334 0.19 -0.24 0.33 -0.32 s0.29 -0.12 0.45 -0.12 c0.24 0 0.44666 0.08666 0.62 0.26 s0.26 0.38 0.26 0.62 c0 0.16 -0.04 0.30666 -0.12 0.44 z M233 13.36 l-0.24 -0.000039062 l0.26 -0.46 l3.62 6.06 c0.08 0.14666 0.12 0.3 0.12 0.46 c0 0.24 -0.08666 0.44666 -0.26 0.62 s-0.38 0.26 -0.62 0.26 c-0.16 0 -0.31 -0.04 -0.45 -0.12 s-0.25 -0.18666 -0.33 -0.32 l-3.88 -6.5 l-0.86 0 l0 6.06 c0 0.24 -0.08666 0.44666 -0.26 0.62 s-0.38 0.26 -0.62 0.26 c-0.25334 0 -0.46668 -0.08666 -0.64002 -0.26 s-0.26 -0.38 -0.26 -0.62 l0 -14.02 c0 -0.24 0.08666 -0.44666 0.26 -0.62 s0.38668 -0.26 0.64002 -0.26 l3.52 0 c0.61334 0 1.19 0.11666 1.73 0.35 s1.01 0.55 1.41 0.95 s0.71666 0.86666 0.95 1.4 s0.35 1.1067 0.35 1.72 s-0.11666 1.1867 -0.35 1.72 s-0.55 1 -0.95 1.4 s-0.87 0.71666 -1.41 0.95 s-1.1167 0.35 -1.73 0.35 z M233 6.279999999999999 l-2.64 0 l0 5.3 l2.64 0 c0.36 0 0.70334 -0.07 1.03 -0.21 s0.61 -0.33 0.85 -0.57 s0.43 -0.52 0.57 -0.84 s0.21 -0.66 0.21 -1.02 s-0.07 -0.70334 -0.21 -1.03 s-0.33 -0.61 -0.57 -0.85 s-0.52334 -0.43 -0.85 -0.57 s-0.67 -0.21 -1.03 -0.21 z M259.518 20.3 l-6.88 -0.000019531 c-0.25334 0 -0.46668 -0.08666 -0.64002 -0.26 s-0.26 -0.38 -0.26 -0.62 l0 -0.04 l0 -0.04 l0 -13.94 c0 -0.24 0.08666 -0.44666 0.26 -0.62 s0.38668 -0.26 0.64002 -0.26 l6.88 0 c0.25334 0 0.46668 0.08666 0.64002 0.26 s0.26 0.38 0.26 0.62 c0 0.25334 -0.08666 0.46334 -0.26 0.63 s-0.38668 0.25 -0.64002 0.25 l-6 0 l0 5.1 l5.06 0 c0.24 0 0.44666 0.08334 0.62 0.25 s0.26 0.37666 0.26 0.63 c0 0.24 -0.08666 0.44666 -0.26 0.62 s-0.38 0.26 -0.62 0.26 l-5.06 0 l0 5.38 l6 0 c0.25334 0 0.46668 0.08666 0.64002 0.26 s0.26 0.38668 0.26 0.64002 c0 0.24 -0.08666 0.44666 -0.26 0.62 s-0.38668 0.26 -0.64002 0.26 z M279.29599999999994 13.36 l-2.64 -0.000039062 l0 6.06 c0 0.24 -0.08666 0.44666 -0.26 0.62 s-0.38 0.26 -0.62 0.26 c-0.25334 0 -0.46668 -0.08666 -0.64002 -0.26 s-0.26 -0.38 -0.26 -0.62 l0 -14.02 c0 -0.24 0.08666 -0.44666 0.26 -0.62 s0.38668 -0.26 0.64002 -0.26 l3.52 0 c0.61334 0 1.19 0.11666 1.73 0.35 s1.01 0.55 1.41 0.95 s0.71666 0.86666 0.95 1.4 s0.35 1.1067 0.35 1.72 s-0.11666 1.1867 -0.35 1.72 s-0.55 1 -0.95 1.4 s-0.87 0.71666 -1.41 0.95 s-1.1167 0.35 -1.73 0.35 z M279.29599999999994 6.279999999999999 l-2.64 0 l0 5.3 l2.64 0 c0.36 0 0.70334 -0.07 1.03 -0.21 s0.61 -0.33 0.85 -0.57 s0.43 -0.52 0.57 -0.84 s0.21 -0.66 0.21 -1.02 s-0.07 -0.70334 -0.21 -1.03 s-0.33 -0.61 -0.57 -0.85 s-0.52334 -0.43 -0.85 -0.57 s-0.67 -0.21 -1.03 -0.21 z M305.81399999999996 20.3 l-6.88 -0.000019531 c-0.25334 0 -0.46668 -0.08666 -0.64002 -0.26 s-0.26 -0.38 -0.26 -0.62 l0 -0.04 l0 -0.04 l0 -13.94 c0 -0.24 0.08666 -0.44666 0.26 -0.62 s0.38668 -0.26 0.64002 -0.26 l6.88 0 c0.25334 0 0.46668 0.08666 0.64002 0.26 s0.26 0.38 0.26 0.62 c0 0.25334 -0.08666 0.46334 -0.26 0.63 s-0.38668 0.25 -0.64002 0.25 l-6 0 l0 5.1 l5.06 0 c0.24 0 0.44666 0.08334 0.62 0.25 s0.26 0.37666 0.26 0.63 c0 0.24 -0.08666 0.44666 -0.26 0.62 s-0.38 0.26 -0.62 0.26 l-5.06 0 l0 5.38 l6 0 c0.25334 0 0.46668 0.08666 0.64002 0.26 s0.26 0.38668 0.26 0.64002 c0 0.24 -0.08666 0.44666 -0.26 0.62 s-0.38668 0.26 -0.64002 0.26 z M333.13199999999995 20.22 c-0.10666 0.05334 -0.21992 0.08 -0.33992 0.08 c-0.17334 0 -0.33668 -0.04666 -0.49002 -0.14 s-0.26334 -0.22668 -0.33 -0.40002 l-1.58 -3.72 l-7.26 0 l-1.58 3.72 c-0.09334 0.22666 -0.25334 0.38666 -0.48 0.48 s-0.45332 0.08668 -0.67998 -0.01998 c-0.22666 -0.09334 -0.38666 -0.25334 -0.48 -0.48 s-0.08668 -0.45332 0.01998 -0.67998 l1.8 -4.26 l4.22 -9.88 c0.06666 -0.17334 0.17332 -0.30668 0.31998 -0.40002 s0.31332 -0.14 0.49998 -0.14 c0.17334 0 0.33334 0.04666 0.48 0.14 s0.25332 0.22668 0.31998 0.40002 c1.0133 2.3734 2.02 4.73 3.02 7.07 s2.0066 4.6966 3.02 7.07 c0.09334 0.22666 0.09334 0.45332 0 0.67998 s-0.25334 0.38666 -0.48 0.48 z M326.77199999999993 7.539999999999999 l-2.88 6.72 l5.74 0 z M354.36999999999995 6.279999999999999 l-3.24 0 l0 13.14 c0 0.24 -0.08666 0.44666 -0.26 0.62 s-0.38 0.26 -0.62 0.26 c-0.25334 0 -0.46668 -0.08666 -0.64002 -0.26 s-0.26 -0.38 -0.26 -0.62 l0 -13.14 l-3.24 0 c-0.24 0 -0.44666 -0.08334 -0.62 -0.25 s-0.26 -0.37666 -0.26 -0.63 c0 -0.24 0.08666 -0.44666 0.26 -0.62 s0.38 -0.26 0.62 -0.26 l8.26 0 c0.24 0 0.44666 0.08666 0.62 0.26 s0.26 0.38 0.26 0.62 c0 0.25334 -0.08666 0.46334 -0.26 0.63 s-0.38 0.25 -0.62 0.25 z"></path></g></svg>